<svg xmlns="http://www.w3.org/2000/svg" viewBox="0 0 512 512" width="512" height="512">
  <rect width="512" height="512" rx="96" fill="#0f172a"/>
  <rect x="24" y="24" width="464" height="464" rx="80" fill="none" stroke="#1e293b" stroke-width="4"/>
  <!-- B -->
  <path d="M120 148h68c20 0 36 4 48 14 10 9 16 22 16 37 0 20-10 33-28 40v1c22 5 34 22 34 44 0 18-7 32-20 42-14 11-33 16-57 16H120V148zm48 76h24c22 0 34-10 34-28s-12-26-34-26h-24v54zm0 82h28c24 0 38-11 38-30s-14-30-38-30h-28v60z"
        fill="#f59e0b"/>
  <!-- P -->
  <path d="M300 148h64c24 0 42 6 54 18 12 11 18 27 18 47 0 21-7 38-20 50-13 11-32 17-56 17h-16v62h-44V148zm44 108h14c26 0 40-13 40-36s-14-34-40-34h-14v70z"
        fill="#f59e0b"/>
  <!-- Underline accent -->
  <rect x="120" y="360" width="272" height="6" rx="3" fill="#f59e0b" opacity="0.5"/>
</svg>
